<?xml version="1.0" encoding="UTF-8" standalone="no"?>
<svg width="59px" height="54px" viewBox="0 0 59 54" version="1.1" xmlns="http://www.w3.org/2000/svg" xmlns:xlink="http://www.w3.org/1999/xlink">
    <!-- Generator: Sketch 40 (33762) - http://www.bohemiancoding.com/sketch -->
    <title>elephant</title>
    <desc>Created with Sketch.</desc>
    <defs></defs>
    <g id="Page-1" stroke="none" stroke-width="1" fill="none" fill-rule="evenodd">
        <g id="elephant">
            <path d="M43.6778046,6.58906546 C40.1249177,2.99408108 35.176473,0.760912271 29.7003111,0.760912271 C24.235545,0.760912271 19.2958663,2.98451533 15.743856,6.56732511 C11.5080925,-0.183488559 0.652195373,0.869614024 0.652195373,20.8272559 C0.652195373,41.1075245 9.86007198,45.8695309 19.2239846,36.5864012 C21.0385604,37.729074 23.0547558,38.5847742 25.209455,39.0865415 L34.2288612,39.0778454 C36.3809306,38.57173 38.3953728,37.713421 40.2073188,36.5681393 L40.2064422,36.5811835 C49.572108,45.8721398 58.7843676,41.1118726 58.7843676,20.8272559 C58.7843676,0.847873673 47.9048021,-0.185227787 43.6778046,6.58906546" id="Fill-138" fill="#192E58"></path>
            <path d="M23.6718869,20.3750566 C23.6718869,21.667303 22.6155758,22.7151879 21.3129383,22.7151879 C20.0103008,22.7151879 18.9539897,21.667303 18.9539897,20.3750566 C18.9539897,19.0828101 20.0103008,18.0357949 21.3129383,18.0357949 C22.6155758,18.0357949 23.6718869,19.0828101 23.6718869,20.3750566" id="Fill-139" fill="#72A2C0"></path>
            <path d="M40.4466324,20.3750566 C40.4466324,21.667303 39.3911979,22.7151879 38.0885604,22.7151879 C36.7859229,22.7151879 35.7296118,21.667303 35.7296118,20.3750566 C35.7296118,19.0828101 36.7859229,18.0357949 38.0885604,18.0357949 C39.3911979,18.0357949 40.4466324,19.0828101 40.4466324,20.3750566" id="Fill-140" fill="#72A2C0"></path>
            <path d="M25.3304267,29.415564 C25.3304267,29.4138248 25.3304267,29.4112159 25.3295501,29.4094767 C24.7702751,33.000113 19.1670051,42.1006237 17.1893805,43.3267795 C21.4242674,43.1154633 23.6920488,41.4858066 25.5846427,39.3752534 C25.5855193,39.3691661 25.5863959,39.3630788 25.5872725,39.3569915 L25.3304267,29.415564" id="Fill-141" fill="#F4F3F2"></path>
            <path d="M34.9240103,29.4059982 L34.8985887,29.579921 C34.7372931,32.1157155 34.358599,35.5872147 33.4942648,39.139588 L33.4863753,39.1952433 C35.3798458,41.3075358 38.8275398,43.1154633 43.0650566,43.3267795 C41.0865553,42.1006237 35.4806555,32.9940257 34.9240103,29.4059982" id="Fill-142" fill="#F4F3F2"></path>
            <path d="M35.0598843,25.3692499 C35.0598843,25.3692499 35.7296118,53.5343089 19.6035553,54.0247712 L19.6035553,47.8861659 C28.3827712,45.1929712 25.7853856,29.343386 24.5493702,25.3692499" id="Fill-143" fill="#192E58"></path>
        </g>
    </g>
</svg>