<?xml version="1.0" encoding="UTF-8" standalone="no"?>
<svg width="1359px" height="1359px" viewBox="0 0 1359 1359" version="1.1" xmlns="http://www.w3.org/2000/svg" xmlns:xlink="http://www.w3.org/1999/xlink">
    <!-- Generator: Sketch 40 (33762) - http://www.bohemiancoding.com/sketch -->
    <title>Rocket</title>
    <desc>Created with Sketch.</desc>
    <defs>
        <linearGradient x1="0%" y1="50%" x2="100%" y2="50%" id="linearGradient-1">
            <stop stop-color="#FFD400" offset="0%"></stop>
            <stop stop-color="#FF3F00" offset="100%"></stop>
        </linearGradient>
    </defs>
    <g id="Page-1" stroke="none" stroke-width="1" fill="none" fill-rule="evenodd">
        <g id="Rocket" transform="translate(679.500000, 679.500000) rotate(-90.000000) translate(-679.500000, -679.500000) translate(-101.000000, 299.000000)">
            <polygon id="Flank-1" fill="#FF0000" points="285.223108 3.22901565 626.504789 0.32697724 750.845596 121.230513 756.939385 242.232257 422.237622 255.681805 420.931459 138.313748"></polygon>
            <polygon id="Flank-2" fill="#FF0000" transform="translate(521.000000, 633.000000) scale(1, -1) translate(-521.000000, -633.000000) " points="285.223108 508.229016 626.504789 505.326977 750.845596 626.230513 756.939385 747.232257 422.237622 760.681805 420.931459 643.313748"></polygon>
            <path d="M302.140919,546.345682 C415.08315,546.345682 465.308002,515.908517 465.308002,381.408517 C465.308002,246.908517 415.08315,216.471353 302.140919,216.471353 C189.198687,216.471353 -0.400676727,391.5 -0.400676727,391.5 C-0.400676727,391.5 189.198687,546.345682 302.140919,546.345682 Z" id="Fire" fill="url(#linearGradient-1)"></path>
            <path d="M889.819564,656.955261 C1217.60056,656.955261 1561.22752,371.595045 1561.22752,371.595045 C1561.22752,371.595045 1217.60056,103.651655 889.819564,103.651655 C562.038565,103.651655 324.725178,264.80345 324.725178,380.30345 C324.725178,495.80345 562.038565,656.955261 889.819564,656.955261 Z" id="Body" fill="#D8D8D8"></path>
            <circle id="Window" fill="#494949" cx="1067.5" cy="373.014719" r="124.5"></circle>
            <path d="M233.291612,381.792541 L233.230213,381.793532 L314.742817,290.506095 L790.266224,320.229205 L841.504139,371.97235 L841.210942,371.977084 L790.996989,425.105582 L316.823709,472.068428 L233.291612,381.792541 Z" id="Flank-3" fill="#F21616"></path>
        </g>
    </g>
</svg>