<?xml version="1.0" encoding="UTF-8" standalone="no"?>
<svg width="744px" height="1563px" viewBox="0 0 744 1563" version="1.1" xmlns="http://www.w3.org/2000/svg" xmlns:xlink="http://www.w3.org/1999/xlink">
    <!-- Generator: Sketch 40 (33762) - http://www.bohemiancoding.com/sketch -->
    <title>Rocket</title>
    <desc>Created with Sketch.</desc>
    <defs>
        <linearGradient x1="0%" y1="50%" x2="100%" y2="50%" id="linearGradient-1">
            <stop stop-color="#FFD400" offset="0%"></stop>
            <stop stop-color="#FF3F00" offset="100%"></stop>
        </linearGradient>
    </defs>
    <g id="Page-1" stroke="none" stroke-width="1" fill="none" fill-rule="evenodd">
        <g id="Rocket" transform="translate(372.000000, 781.500000) rotate(-90.000000) translate(-372.000000, -781.500000) translate(-409.500000, 409.500000)">
            <polygon id="Flank-1" fill="#FF0000" points="286.223108 3.15688258 627.504789 0.319672886 751.845596 118.522341 757.939385 236.821024 423.237622 249.970122 421.931459 135.223953"></polygon>
            <polygon id="Flank-2" fill="#FF0000" transform="translate(522.081247, 618.855102) scale(1, -1) translate(-522.081247, -618.855102) " points="286.223108 496.867087 627.504789 494.029878 751.845596 612.232546 757.939385 730.531228 423.237622 743.680327 421.931459 628.934158"></polygon>
            <path d="M303.140919,534.14085 C416.08315,534.14085 466.308002,504.383623 466.308002,372.888222 C466.308002,241.392821 416.08315,211.635593 303.140919,211.635593 C190.198687,211.635593 0.599323273,382.754271 0.599323273,382.754271 C0.599323273,382.754271 190.198687,534.14085 303.140919,534.14085 Z" id="Fire" fill="url(#linearGradient-1)"></path>
            <path d="M890.819564,642.27952 C1218.60056,642.27952 1562.22752,363.293973 1562.22752,363.293973 C1562.22752,363.293973 1218.60056,101.336178 890.819564,101.336178 C563.038565,101.336178 325.725178,258.887998 325.725178,371.80784 C325.725178,484.727683 563.038565,642.27952 890.819564,642.27952 Z" id="Body" fill="#D8D8D8"></path>
            <ellipse id="Window" fill="#494949" cx="1068.5" cy="364.681933" rx="124.5" ry="121.718791"></ellipse>
            <path d="M459.497127,369.70873 L234.230213,373.264636 L315.742817,284.016471 L791.266224,313.075596 L842.151306,363.314498 L842.353949,363.311111 L842.253313,363.415208 L842.504139,363.66285 L842.006308,363.670708 L791.984273,415.413014 L317.787302,461.697483 L234.300297,373.471817 L459.497127,369.70873 Z" id="Flank-3" fill="#F21616"></path>
        </g>
    </g>
</svg>